<svg width="220" height="113" viewBox="0 0 220 113" fill="none" xmlns="http://www.w3.org/2000/svg">
<g clip-path="url(#clip0_183_456)">
<mask id="mask0_183_456" style="mask-type:luminance" maskUnits="userSpaceOnUse" x="0" y="0" width="220" height="113">
<path d="M219.93 0H0V112.25H219.93V0Z" fill="white"/>
</mask>
<g mask="url(#mask0_183_456)">
<path fill-rule="evenodd" clip-rule="evenodd" d="M127.74 0H0V112.25H219.93L127.74 0Z" fill="url(#paint0_linear_183_456)"/>
</g>
<mask id="mask1_183_456" style="mask-type:luminance" maskUnits="userSpaceOnUse" x="21" y="23" width="49" height="68">
<path d="M58.3428 39.0408C56.5405 38.483 55.23 37.5378 52.2202 37.619C49.841 38.6629 46.3392 39.113 43.5845 38.8833C43.9019 40.967 47.2829 41.5699 49.7069 40.7778C49.8098 40.9894 49.917 41.2008 50.0199 41.408C47.4841 43.0505 45.9905 49.931 47.35 53.8863C49.434 59.9343 59.6174 66.6574 56.4555 75.212V75.3695C57.6942 74.8385 57.9939 73.4884 58.6514 72.3679C63.9778 63.3364 58.2534 58.0084 56.2945 49.7779C55.1898 45.1429 59.4339 41.0075 64.1431 42.353C64.246 42.2494 64.3535 42.1414 64.4562 42.038C63.052 37.9969 62.1172 40.211 58.3338 39.0364L58.3428 39.0408ZM40.6909 76.9895C45.3018 78.6995 49.3849 78.7894 51.8311 78.6544C49.4117 78.425 47.4127 78.0244 45.9458 77.669C41.7508 76.6519 40.6775 75.6889 40.1587 75.1084C39.5191 74.3975 38.884 73.4389 38.884 73.4389C38.2982 72.4894 38.012 71.6885 37.1891 70.7614C35.673 69.0514 33.8662 68.624 32.5694 68.5294C33.0478 68.3405 34.461 67.868 36.0666 68.399C38.8484 69.3169 39.5639 72.3633 39.5997 72.5345C39.5728 72.1339 39.5147 71.6795 39.3939 71.1934C38.9601 69.4249 38.0166 68.4034 37.5469 67.9624C34.7697 67.4134 30.8296 66.1264 27.784 62.8459C20.6419 55.1418 21.5945 39.8375 30.5434 31.1885C39.2866 22.7374 53.62 22.6204 62.0949 29.6134C66.8801 33.5599 68.669 38.8429 69.3622 41.5519C69.1431 39.554 68.3427 34.8515 64.7067 30.5134C59.2327 23.9794 51.5406 23.3224 50.0422 23.2234C47.5737 22.9309 43.1327 22.7464 38.0836 24.5193C35.9996 25.2529 29.1704 27.7639 24.7429 34.9775C21.3083 40.5755 21.183 46.0113 21.1562 48.401C21.0444 58.6519 26.5765 65.69 28.2402 67.7464C29.8323 69.7084 33.7277 74.4019 40.6909 76.9805V76.9895ZM54.5771 71.2655C52.7748 64.628 49.7964 62.8145 45.9412 58.6295C45.1049 57.365 44.2687 56.1004 43.4279 54.8359C40.8877 68.4934 49.7918 69.0919 55.2032 75.0589C55.5208 73.9879 54.8499 72.2734 54.5771 71.2655ZM44.528 69.056C42.5379 67.4224 40.5522 65.789 38.562 64.1599C38.9288 68.4529 40.8966 72.9709 44.3716 74.114C46.2051 74.3254 48.0342 74.537 49.8679 74.7439C51.5941 75.428 53.3205 76.1119 55.0467 76.7959C53.9287 71.6344 48.4726 71.4545 44.528 69.056ZM57.8731 79.6264C57.4617 79.5589 56.6926 79.613 55.154 79.721C54.5279 79.7658 54.0941 79.8153 53.9152 79.8244C52.0504 79.8829 50.6685 79.7524 49.2418 79.7164C47.6766 79.6805 46.0351 79.4913 44.4745 79.2214C44.0764 79.1539 43.4502 79.0415 42.6676 78.8479C39.3089 78.02 36.5138 76.3593 35.6328 75.8239C32.605 73.9789 30.3958 71.8324 28.8797 70.0775C29.5461 71.3194 30.6418 73.0698 32.377 74.7978C33.0166 75.4368 35.0425 77.372 38.9467 79.1585C45.6596 82.232 49.9976 81.2374 52.1935 84.59C52.4037 84.9094 53.2355 86.1829 52.8061 86.8129C52.332 87.506 50.5835 87.0379 49.7381 86.8129C48.5844 86.5023 46.8312 85.8365 44.9529 84.2209C45.2616 84.8509 46.9967 88.2574 50.4717 88.91C51.2229 89.0538 53.7229 89.5219 54.8857 87.9244C55.6237 86.9075 55.5878 85.3774 54.8857 83.9734C55.1048 83.8608 56.6567 83.1004 58.1997 83.852C58.3026 83.9015 59.0851 84.3018 59.5368 85.0939C60.3641 86.5294 59.832 88.7615 58.1997 90.6424C58.8437 90.1609 60.5386 88.7569 61.1424 86.3224C61.3526 85.4764 61.8042 83.6404 60.7757 81.881C60.6459 81.6603 59.5995 79.9324 57.8687 79.64L57.8731 79.6264Z" fill="white"/>
</mask>
<g mask="url(#mask1_183_456)">
<path d="M166.995 -28.1172H-67.7963V129.383H166.995V-28.1172Z" fill="white"/>
</g>
<path d="M81.2264 76.7605C81.3299 76.7605 81.3816 76.823 81.3816 76.948C81.3816 77.0731 81.3299 77.1356 81.2264 77.1356C80.8125 77.1356 80.1709 77.1147 79.3016 77.0731C78.3909 77.0314 77.7389 77.0106 77.3457 77.0106C76.8283 77.0106 76.197 77.0314 75.4519 77.0731C74.7482 77.1147 74.1894 77.1356 73.7754 77.1356C73.6927 77.1356 73.6513 77.0731 73.6513 76.948C73.6513 76.823 73.6927 76.7605 73.7754 76.7605C74.3136 76.7605 74.6965 76.7084 74.9241 76.6042C75.1725 76.4792 75.2967 76.2708 75.2967 75.979C75.2967 75.6248 75.0897 75.0309 74.6758 74.1973L71.447 67.7895H65.9209L63.7166 72.697C63.4476 73.3013 63.313 73.8639 63.313 74.3849C63.313 75.1351 63.5717 75.7186 64.0892 76.1353C64.6273 76.5521 65.3414 76.7605 66.2313 76.7605C66.3348 76.7605 66.3866 76.823 66.3866 76.948C66.3866 77.0731 66.3348 77.1356 66.2313 77.1356C65.8588 77.1356 65.3207 77.1147 64.617 77.0731C63.8305 77.0314 63.1475 77.0106 62.5679 77.0106C62.0091 77.0106 61.3365 77.0314 60.55 77.0731C59.8463 77.1147 59.2771 77.1356 58.8424 77.1356C58.7597 77.1356 58.7183 77.0731 58.7183 76.948C58.7183 76.823 58.7597 76.7605 58.8424 76.7605C59.422 76.7605 59.9083 76.6459 60.3016 76.4166C60.6948 76.1666 61.0881 75.7394 61.4813 75.1351C61.8746 74.5099 62.3403 73.593 62.8784 72.3844L69.6153 57.4744C69.6567 57.4119 69.7498 57.3806 69.8947 57.3806C70.0603 57.3806 70.1534 57.4119 70.1741 57.4744L77.9356 72.8532C78.66 74.3328 79.2602 75.3539 79.7362 75.9165C80.2123 76.4792 80.709 76.7605 81.2264 76.7605ZM71.0124 66.9143L68.5287 61.9755L66.3245 66.9143H71.0124ZM96.9921 76.7605C97.0542 76.7605 97.0852 76.823 97.0852 76.948C97.0852 77.0731 97.0542 77.1356 96.9921 77.1356C96.454 77.1356 96.0297 77.1252 95.7192 77.1043L93.8565 77.0731L92.0558 77.1043C91.7247 77.1252 91.29 77.1356 90.7519 77.1356C90.6898 77.1356 90.6587 77.0731 90.6587 76.948C90.6587 76.823 90.6898 76.7605 90.7519 76.7605C91.3935 76.7605 91.8281 76.6146 92.0558 76.3229C92.2835 76.0103 92.3973 75.4372 92.3973 74.6037V70.1026C92.3973 68.9773 92.1903 68.1437 91.7764 67.6019C91.3832 67.0601 90.7519 66.7892 89.8826 66.7892C89.3859 66.7892 88.8684 66.8934 88.3303 67.1018C87.8129 67.3102 87.3576 67.5915 86.9643 67.9458V74.6037C86.9643 75.4372 87.0781 76.0103 87.3058 76.3229C87.5542 76.6146 87.9992 76.7605 88.6408 76.7605C88.7029 76.7605 88.7339 76.823 88.7339 76.948C88.7339 77.0731 88.7029 77.1356 88.6408 77.1356C88.1027 77.1356 87.6784 77.1252 87.3679 77.1043L85.5052 77.0731L83.6735 77.1043C83.363 77.1252 82.9387 77.1356 82.4006 77.1356C82.3385 77.1356 82.3074 77.0731 82.3074 76.948C82.3074 76.823 82.3385 76.7605 82.4006 76.7605C83.0422 76.7605 83.4768 76.6146 83.7045 76.3229C83.9322 76.0103 84.046 75.4372 84.046 74.6037V68.7272C84.046 68.0812 83.9632 67.6123 83.7976 67.3206C83.6528 67.008 83.4147 66.8517 83.0836 66.8517C82.7317 66.8517 82.235 66.9976 81.5934 67.2893H81.5313C81.4692 67.2893 81.4175 67.2372 81.3761 67.1331C81.3554 67.0289 81.3657 66.9664 81.4071 66.9455L85.7225 64.82C85.8467 64.7783 85.9191 64.7575 85.9398 64.7575C86.1675 64.7575 86.3848 64.9867 86.5918 65.4451C86.7987 65.8827 86.9229 66.4871 86.9643 67.2581C88.3924 65.5493 89.9654 64.6949 91.6833 64.6949C92.8009 64.6949 93.6805 65.0596 94.3221 65.789C94.9845 66.4975 95.3156 67.4352 95.3156 68.6022V74.6037C95.3156 75.4372 95.4294 76.0103 95.6571 76.3229C95.9055 76.6146 96.3505 76.7605 96.9921 76.7605ZM105.293 75.854C106.514 75.8748 107.507 75.9478 108.273 76.0728C109.059 76.1978 109.711 76.5104 110.229 77.0106C110.767 77.4898 111.036 78.2296 111.036 79.2299C111.036 80.3968 110.674 81.4908 109.949 82.5119C109.246 83.5539 108.283 84.3874 107.062 85.0126C105.862 85.6377 104.568 85.9503 103.181 85.9503C101.753 85.9503 100.584 85.6169 99.6734 84.9501C98.7627 84.3041 98.3073 83.4497 98.3073 82.3869C98.3073 80.9282 99.3526 79.5112 101.443 78.1358C99.9528 77.8441 99.2077 77.0939 99.2077 75.8853C99.2077 74.5933 99.9321 73.4576 101.381 72.4782C100.594 72.1031 99.9735 71.5821 99.5181 70.9153C99.0835 70.2276 98.8662 69.5087 98.8662 68.7585C98.8662 67.9249 99.1352 67.2164 99.6734 66.6329C100.211 66.0495 100.894 65.6118 101.722 65.3201C102.571 65.0075 103.43 64.8512 104.299 64.8512C105.603 64.8512 106.721 65.1846 107.652 65.8515C108.728 65.1221 109.846 64.7575 111.005 64.7575C111.171 64.7575 111.253 65.0492 111.253 65.6327C111.253 65.9453 111.212 66.2787 111.129 66.6329C111.046 66.9664 110.964 67.1018 110.881 67.0393C110.032 66.685 109.266 66.5079 108.583 66.5079H108.335C108.894 67.1747 109.173 67.9249 109.173 68.7585C109.173 69.592 108.904 70.3318 108.366 70.9778C107.828 71.6238 107.135 72.1239 106.286 72.4782C105.458 72.8116 104.599 72.9783 103.709 72.9783C103.068 72.9783 102.478 72.8845 101.94 72.697C101.608 73.0512 101.443 73.4992 101.443 74.041C101.443 74.6037 101.588 75.01 101.878 75.2601C102.188 75.5102 102.592 75.6665 103.088 75.729C103.585 75.7915 104.32 75.8332 105.293 75.854ZM103.275 65.4451C102.343 65.4451 101.878 66.237 101.878 67.8207C101.878 68.6959 102.002 69.4878 102.25 70.1963C102.498 70.884 102.819 71.4258 103.213 71.8217C103.626 72.2177 104.061 72.4156 104.516 72.4156C104.972 72.4156 105.355 72.1864 105.665 71.728C105.976 71.2695 106.131 70.5714 106.131 69.6337C106.131 68.7376 105.986 67.977 105.696 67.3519C105.406 66.7059 105.034 66.2266 104.579 65.914C104.144 65.6014 103.709 65.4451 103.275 65.4451ZM105.044 84.9501C106.1 84.9501 106.938 84.6166 107.559 83.9498C108.18 83.283 108.49 82.3765 108.49 81.2304C108.49 80.3343 108.294 79.6779 107.9 79.2611C107.528 78.8652 107.031 78.6151 106.41 78.5109C105.81 78.4276 104.93 78.3755 103.771 78.3546C103.585 78.3546 103.326 78.3442 102.995 78.3234C102.664 78.3025 102.385 78.2817 102.157 78.2609C101.453 78.7818 101.101 79.6154 101.101 80.7615C101.101 82.0952 101.484 83.1267 102.25 83.856C103.037 84.5854 103.968 84.9501 105.044 84.9501ZM123.22 75.0726C123.262 75.0726 123.303 75.1142 123.344 75.1976C123.406 75.2809 123.417 75.3435 123.375 75.3851C122.61 76.1353 121.833 76.6771 121.047 77.0106C120.26 77.344 119.402 77.5107 118.47 77.5107C117.166 77.5107 116.038 77.2398 115.086 76.698C114.134 76.1353 113.41 75.3956 112.913 74.4787C112.416 73.5409 112.168 72.5303 112.168 71.4466C112.168 70.238 112.468 69.1231 113.068 68.102C113.668 67.081 114.496 66.2787 115.552 65.6952C116.628 65.0909 117.839 64.7887 119.184 64.7887C120.467 64.7887 121.461 65.0805 122.165 65.6639C122.868 66.2474 123.22 67.1539 123.22 68.3834C123.22 69.0294 123.106 69.3524 122.879 69.3524L115.335 69.3836C115.314 69.5295 115.303 69.7691 115.303 70.1026C115.303 71.9364 115.717 73.3742 116.545 74.4161C117.394 75.4581 118.605 75.979 120.178 75.979C120.736 75.979 121.213 75.9165 121.606 75.7915C121.999 75.6665 122.516 75.4372 123.158 75.1038L123.22 75.0726ZM118.004 65.4139C117.321 65.4139 116.752 65.716 116.297 66.3203C115.842 66.9038 115.542 67.7165 115.397 68.7585L119.898 68.696C119.878 67.6332 119.722 66.8205 119.433 66.2578C119.143 65.6952 118.667 65.4139 118.004 65.4139ZM125.237 77.1356C125.196 77.1356 125.175 77.0731 125.175 76.948C125.175 76.823 125.196 76.7605 125.237 76.7605C125.879 76.7605 126.313 76.6146 126.541 76.3229C126.789 76.0103 126.914 75.4372 126.914 74.6037L126.945 58.7247C126.945 57.9953 126.872 57.4744 126.727 57.1618C126.603 56.8492 126.375 56.6929 126.044 56.6929C125.775 56.6929 125.382 56.8075 124.865 57.0368H124.834C124.771 57.0368 124.709 56.9847 124.647 56.8805C124.606 56.7554 124.606 56.6825 124.647 56.6617L129.211 54.5049L129.335 54.4736C129.439 54.4736 129.552 54.5257 129.677 54.6299C129.801 54.7133 129.863 54.7966 129.863 54.88V74.6037C129.863 75.4372 129.977 76.0103 130.204 76.3229C130.432 76.6146 130.867 76.7605 131.508 76.7605C131.591 76.7605 131.633 76.823 131.633 76.948C131.633 77.0731 131.591 77.1356 131.508 77.1356C130.991 77.1356 130.577 77.1252 130.267 77.1043L128.373 77.0731L126.51 77.1043C126.2 77.1252 125.775 77.1356 125.237 77.1356ZM133.668 77.1356C133.606 77.1356 133.575 77.0731 133.575 76.948C133.575 76.823 133.606 76.7605 133.668 76.7605C134.31 76.7605 134.745 76.6146 134.972 76.3229C135.2 76.0103 135.314 75.4372 135.314 74.6037V69.0085C135.314 68.3 135.241 67.7895 135.097 67.4769C134.952 67.1643 134.714 67.008 134.382 67.008C134.113 67.008 133.731 67.1226 133.234 67.3519H133.203C133.12 67.3519 133.058 67.2998 133.016 67.1956C132.975 67.0705 132.985 66.9976 133.048 66.9768L137.735 64.7887L137.829 64.7575C137.932 64.7575 138.036 64.8096 138.139 64.9137C138.243 65.0179 138.294 65.1117 138.294 65.1951V65.8827C138.253 66.7163 138.232 67.7374 138.232 68.946V74.6037C138.232 75.4372 138.346 76.0103 138.574 76.3229C138.822 76.6146 139.267 76.7605 139.909 76.7605C139.971 76.7605 140.002 76.823 140.002 76.948C140.002 77.0731 139.971 77.1356 139.909 77.1356C139.37 77.1356 138.946 77.1252 138.636 77.1043L136.773 77.0731L134.941 77.1043C134.631 77.1252 134.207 77.1356 133.668 77.1356ZM136.649 61.6629C136.049 61.6629 135.583 61.4962 135.252 61.1628C134.921 60.8294 134.755 60.3605 134.755 59.7562C134.755 59.2144 134.921 58.7872 135.252 58.4746C135.604 58.1412 136.069 57.9745 136.649 57.9745C137.228 57.9745 137.673 58.1308 137.984 58.4434C138.294 58.7559 138.449 59.1936 138.449 59.7562C138.449 60.3605 138.294 60.8294 137.984 61.1628C137.673 61.4962 137.228 61.6629 136.649 61.6629ZM153.621 75.4477C153.704 75.4477 153.756 75.4997 153.777 75.6039C153.818 75.6873 153.797 75.7498 153.715 75.7915L150.517 77.3231C150.434 77.3648 150.331 77.3856 150.206 77.3856C149.875 77.3856 149.554 77.2085 149.244 76.8543C148.954 76.5 148.747 76.0207 148.623 75.4164L147.288 76.3541C146.812 76.7084 146.367 76.9689 145.953 77.1356C145.539 77.2815 145.074 77.3544 144.556 77.3544C143.666 77.3544 142.993 77.1564 142.538 76.7605C142.083 76.3646 141.855 75.8123 141.855 75.1038C141.855 74.5412 141.99 74.0931 142.259 73.7597C142.528 73.4055 142.859 73.1346 143.252 72.947C143.666 72.7386 144.235 72.5094 144.96 72.2594L145.736 71.978L148.53 70.9465V69.1648C148.53 67.8311 148.416 66.8622 148.188 66.2578C147.982 65.6535 147.619 65.3514 147.102 65.3514C146.005 65.3514 145.384 66.2057 145.239 67.9145C145.177 68.5397 144.991 68.9877 144.68 69.2586C144.391 69.5295 143.977 69.6649 143.438 69.6649C142.921 69.6649 142.538 69.5608 142.29 69.3524C142.062 69.1231 141.948 68.8314 141.948 68.4771C141.948 67.852 142.31 67.2581 143.035 66.6954C143.759 66.112 144.629 65.6431 145.643 65.2888C146.678 64.9346 147.588 64.7575 148.375 64.7575C149.285 64.7575 150.02 65.0492 150.579 65.6327C151.159 66.1953 151.448 67.0601 151.448 68.2271V73.7597C151.448 74.364 151.552 74.8329 151.759 75.1663C151.986 75.4998 152.297 75.6665 152.69 75.6665C152.98 75.6665 153.28 75.5935 153.59 75.4477H153.621ZM148.561 74.885C148.54 74.8017 148.53 74.6662 148.53 74.4787V71.4779L147.195 72.1031C147.133 72.1239 146.926 72.2073 146.574 72.3531C146.222 72.4782 145.912 72.697 145.643 73.0095C145.394 73.3221 145.27 73.6868 145.27 74.1036C145.27 74.6037 145.425 74.9996 145.736 75.2914C146.067 75.5623 146.44 75.6977 146.854 75.6977C147.185 75.6977 147.526 75.5831 147.878 75.3539L148.561 74.885Z" fill="white"/>
<path d="M113.854 82.6818C113.854 82.8902 113.904 83.072 114.005 83.2269C114.106 83.3817 114.228 83.5128 114.371 83.6196C114.52 83.7212 114.722 83.8494 114.976 84.0043C115.258 84.1752 115.472 84.3169 115.621 84.4291C115.775 84.5413 115.905 84.6856 116.011 84.8619C116.123 85.0328 116.178 85.2386 116.178 85.479C116.178 85.7355 116.115 85.9679 115.987 86.1763C115.86 86.3847 115.671 86.5504 115.422 86.6732C115.178 86.7909 114.883 86.8496 114.539 86.8496C114.146 86.8496 113.772 86.756 113.416 86.569C113.39 86.553 113.371 86.5344 113.36 86.5129C113.355 86.4915 113.35 86.4594 113.344 86.4168L113.241 85.3267C113.236 85.3053 113.246 85.2921 113.273 85.2867C113.305 85.2813 113.326 85.2893 113.336 85.3107C113.416 85.6954 113.57 86.0266 113.798 86.3046C114.032 86.5825 114.34 86.7213 114.722 86.7213C114.987 86.7213 115.21 86.6492 115.39 86.5049C115.576 86.3552 115.669 86.1202 115.669 85.7996C115.669 85.5592 115.616 85.3534 115.51 85.1825C115.409 85.0061 115.281 84.8619 115.128 84.7497C114.979 84.6321 114.775 84.4932 114.515 84.3329C114.26 84.1832 114.058 84.0524 113.91 83.9402C113.761 83.8226 113.636 83.6783 113.536 83.5074C113.435 83.3365 113.384 83.1361 113.384 82.9063C113.384 82.6392 113.453 82.4119 113.591 82.225C113.735 82.0326 113.918 81.891 114.14 81.8002C114.369 81.704 114.61 81.6559 114.865 81.6559C115.194 81.6559 115.504 81.7201 115.796 81.8483C115.881 81.8804 115.924 81.9258 115.924 81.9846L115.971 82.9063C115.971 82.9277 115.955 82.9383 115.924 82.9383C115.897 82.9383 115.881 82.9277 115.876 82.9063C115.86 82.7405 115.81 82.5722 115.725 82.4013C115.64 82.225 115.512 82.0781 115.343 81.9605C115.178 81.8377 114.976 81.7762 114.738 81.7762C114.44 81.7762 114.218 81.8643 114.069 82.0407C113.926 82.2116 113.854 82.4254 113.854 82.6818ZM119.913 81.6559C120.168 81.6559 120.426 81.68 120.686 81.7281C120.946 81.7762 121.153 81.8457 121.306 81.9365C121.354 81.9631 121.384 81.9872 121.394 82.0086C121.405 82.0246 121.413 82.0621 121.418 82.1208L121.513 83.0265C121.513 83.0371 121.5 83.0451 121.474 83.0505C121.447 83.0559 121.431 83.0505 121.426 83.0345C121.309 82.6231 121.092 82.3212 120.773 82.1288C120.455 81.9311 120.065 81.8323 119.603 81.8323C119.2 81.8323 118.847 81.923 118.544 82.1048C118.242 82.2811 118.008 82.5322 117.844 82.8582C117.679 83.1842 117.597 83.5609 117.597 83.9883C117.597 84.4852 117.698 84.9446 117.899 85.3668C118.106 85.789 118.382 86.1228 118.727 86.3687C119.078 86.6145 119.454 86.7374 119.858 86.7374C120.24 86.7374 120.572 86.6332 120.853 86.4248C121.134 86.211 121.349 85.8852 121.498 85.447C121.498 85.4363 121.511 85.4309 121.537 85.4309C121.575 85.4309 121.593 85.4389 121.593 85.455L121.474 86.3607C121.463 86.4248 121.453 86.4675 121.442 86.4889C121.431 86.5103 121.402 86.529 121.354 86.545C120.877 86.748 120.373 86.8496 119.842 86.8496C119.205 86.8496 118.672 86.7213 118.242 86.4648C117.817 86.203 117.504 85.8718 117.302 85.471C117.101 85.0703 117 84.6481 117 84.2047C117 83.7132 117.135 83.2749 117.406 82.8902C117.677 82.5001 118.035 82.1983 118.481 81.9846C118.932 81.7655 119.409 81.6559 119.913 81.6559ZM123.519 86.1042C123.519 86.2699 123.535 86.3901 123.567 86.4648C123.599 86.5396 123.66 86.5905 123.75 86.6171C123.845 86.6438 123.994 86.6572 124.196 86.6572C124.212 86.6572 124.22 86.6732 124.22 86.7053C124.22 86.7374 124.212 86.7534 124.196 86.7534C124.037 86.7534 123.909 86.7508 123.814 86.7454L123.248 86.7374L122.707 86.7454C122.612 86.7508 122.479 86.7534 122.309 86.7534C122.293 86.7534 122.285 86.7374 122.285 86.7053C122.285 86.6732 122.293 86.6572 122.309 86.6572C122.511 86.6572 122.657 86.6438 122.747 86.6171C122.842 86.5905 122.906 86.5396 122.938 86.4648C122.975 86.3847 122.994 86.2645 122.994 86.1042V82.3933C122.994 82.233 122.975 82.1154 122.938 82.0407C122.906 81.9659 122.842 81.915 122.747 81.8884C122.657 81.8563 122.511 81.8403 122.309 81.8403C122.293 81.8403 122.285 81.8243 122.285 81.7922C122.285 81.7601 122.293 81.7441 122.309 81.7441L122.707 81.7521C122.93 81.7627 123.111 81.7681 123.248 81.7681C123.408 81.7681 123.599 81.7627 123.822 81.7521L124.196 81.7441C124.212 81.7441 124.22 81.7601 124.22 81.7922C124.22 81.8243 124.212 81.8403 124.196 81.8403C124 81.8403 123.853 81.8563 123.758 81.8884C123.662 81.9204 123.599 81.9765 123.567 82.0567C123.535 82.1314 123.519 82.249 123.519 82.4093V86.1042ZM128.359 85.5592C128.359 85.5486 128.373 85.5431 128.399 85.5431C128.41 85.5431 128.42 85.5486 128.431 85.5592C128.447 85.5646 128.455 85.5698 128.455 85.5752C128.407 85.9118 128.383 86.2645 128.383 86.6332C128.383 86.6758 128.373 86.7079 128.351 86.7293C128.336 86.7454 128.306 86.7534 128.264 86.7534H124.928C124.913 86.7534 124.905 86.7374 124.905 86.7053C124.905 86.6732 124.913 86.6572 124.928 86.6572C125.13 86.6572 125.276 86.6438 125.366 86.6171C125.462 86.5905 125.526 86.5396 125.557 86.4648C125.589 86.3847 125.605 86.2645 125.605 86.1042V82.3933C125.605 82.233 125.589 82.1154 125.557 82.0407C125.526 81.9659 125.462 81.915 125.366 81.8884C125.276 81.8563 125.13 81.8403 124.928 81.8403C124.913 81.8403 124.905 81.8243 124.905 81.7922C124.905 81.7601 124.913 81.7441 124.928 81.7441H128.121C128.168 81.7441 128.192 81.7681 128.192 81.8162L128.216 82.8101C128.216 82.8207 128.2 82.8261 128.168 82.8261C128.137 82.8261 128.121 82.8207 128.121 82.8101C128.099 82.527 128.012 82.3078 127.858 82.1529C127.704 81.9926 127.5 81.9124 127.245 81.9124H126.759C126.579 81.9124 126.444 81.9258 126.353 81.9525C126.263 81.9791 126.202 82.03 126.17 82.1048C126.138 82.1743 126.123 82.2837 126.123 82.4334V84.0684H127.094C127.348 84.0684 127.529 84.0257 127.635 83.9402C127.746 83.8494 127.802 83.7023 127.802 83.4994C127.802 83.4887 127.818 83.4833 127.85 83.4833C127.882 83.4833 127.898 83.4887 127.898 83.4994L127.89 84.1486C127.89 84.3089 127.892 84.4291 127.898 84.5092L127.906 84.8859C127.906 84.902 127.89 84.91 127.858 84.91C127.826 84.91 127.81 84.902 127.81 84.8859C127.81 84.6509 127.752 84.4826 127.635 84.381C127.524 84.2794 127.335 84.2287 127.07 84.2287H126.123V86.0721C126.123 86.2164 126.138 86.326 126.17 86.4007C126.202 86.4703 126.26 86.5183 126.345 86.545C126.436 86.5716 126.568 86.5851 126.743 86.5851H127.38C127.63 86.5851 127.839 86.4943 128.009 86.3126C128.184 86.1308 128.301 85.8798 128.359 85.5592ZM134.458 81.7441C134.474 81.7441 134.482 81.7601 134.482 81.7922C134.482 81.8243 134.474 81.8403 134.458 81.8403C134.235 81.8403 134.073 81.9018 133.972 82.0246C133.871 82.1475 133.821 82.3452 133.821 82.6177V86.8415C133.821 86.8576 133.808 86.8682 133.781 86.8736C133.76 86.879 133.744 86.8762 133.734 86.8656L130.064 82.4013L130 82.3212V85.8798C130 86.1577 130.048 86.3581 130.143 86.4809C130.239 86.5985 130.396 86.6572 130.613 86.6572C130.629 86.6572 130.637 86.6732 130.637 86.7053C130.637 86.7374 130.629 86.7534 130.613 86.7534C130.48 86.7534 130.38 86.7508 130.311 86.7454L129.913 86.7374L129.507 86.7454C129.432 86.7508 129.323 86.7534 129.18 86.7534C129.164 86.7534 129.156 86.7374 129.156 86.7053C129.156 86.6732 129.164 86.6572 129.18 86.6572C129.408 86.6572 129.57 86.5985 129.666 86.4809C129.761 86.3581 129.809 86.1577 129.809 85.8798V82.1288C129.698 82.022 129.592 81.9471 129.491 81.9044C129.39 81.8617 129.286 81.8403 129.18 81.8403C129.164 81.8403 129.156 81.8243 129.156 81.7922C129.156 81.7601 129.164 81.7441 129.18 81.7441L129.475 81.7521C129.533 81.7575 129.621 81.7601 129.737 81.7601C129.854 81.7601 129.95 81.7575 130.024 81.7521C130.098 81.7467 130.157 81.7441 130.199 81.7441C130.236 81.7441 130.265 81.7547 130.287 81.7762C130.308 81.7922 130.34 81.8323 130.382 81.8964C130.441 81.9926 130.502 82.0807 130.565 82.1609L133.638 85.9439V82.6177C133.638 82.3452 133.59 82.1475 133.495 82.0246C133.405 81.9018 133.251 81.8403 133.033 81.8403C133.022 81.8403 133.017 81.8243 133.017 81.7922C133.017 81.7601 133.022 81.7441 133.033 81.7441L133.343 81.7521C133.503 81.7627 133.633 81.7681 133.734 81.7681C133.829 81.7681 133.962 81.7627 134.132 81.7521L134.458 81.7441ZM136.142 81.8884C135.808 81.8884 135.556 81.9739 135.386 82.1448C135.221 82.3158 135.105 82.6071 135.035 83.0185C135.03 83.0291 135.012 83.0345 134.98 83.0345C134.953 83.0345 134.94 83.0265 134.94 83.0105C134.961 82.8662 134.985 82.6338 135.012 82.3132C135.038 81.9872 135.051 81.7387 135.051 81.5678C135.051 81.5411 135.067 81.5277 135.099 81.5277C135.131 81.5277 135.147 81.5411 135.147 81.5678C135.147 81.6854 135.288 81.7441 135.569 81.7441C136.02 81.7601 136.553 81.7681 137.169 81.7681C137.487 81.7681 137.822 81.7627 138.172 81.7521L138.705 81.7441C138.896 81.7441 139.037 81.7307 139.127 81.704C139.223 81.6774 139.284 81.6239 139.31 81.5437C139.316 81.5223 139.332 81.5117 139.358 81.5117C139.385 81.5117 139.398 81.5223 139.398 81.5437C139.382 81.6934 139.366 81.9284 139.35 82.249C139.334 82.5642 139.326 82.8181 139.326 83.0105C139.326 83.0265 139.31 83.0345 139.278 83.0345C139.252 83.0345 139.236 83.0265 139.231 83.0105C139.215 82.5991 139.13 82.3106 138.976 82.1448C138.822 81.9739 138.567 81.8884 138.212 81.8884C137.973 81.8884 137.803 81.899 137.702 81.9204C137.602 81.9419 137.532 81.9872 137.495 82.0567C137.458 82.1262 137.44 82.2436 137.44 82.4093V86.1042C137.44 86.2699 137.458 86.3901 137.495 86.4648C137.532 86.5396 137.604 86.5905 137.71 86.6171C137.816 86.6438 137.984 86.6572 138.212 86.6572C138.228 86.6572 138.236 86.6732 138.236 86.7053C138.236 86.7374 138.228 86.7534 138.212 86.7534C138.031 86.7534 137.891 86.7508 137.79 86.7454L137.169 86.7374L136.572 86.7454C136.466 86.7508 136.32 86.7534 136.134 86.7534C136.123 86.7534 136.118 86.7374 136.118 86.7053C136.118 86.6732 136.123 86.6572 136.134 86.6572C136.362 86.6572 136.529 86.6438 136.636 86.6171C136.742 86.5905 136.813 86.5396 136.85 86.4648C136.893 86.3847 136.914 86.2645 136.914 86.1042V82.3933C136.914 82.2276 136.896 82.1128 136.858 82.0487C136.821 81.9791 136.752 81.9365 136.651 81.9204C136.551 81.899 136.381 81.8884 136.142 81.8884ZM141.267 86.1042C141.267 86.2699 141.283 86.3901 141.315 86.4648C141.347 86.5396 141.408 86.5905 141.498 86.6171C141.593 86.6438 141.742 86.6572 141.944 86.6572C141.959 86.6572 141.967 86.6732 141.967 86.7053C141.967 86.7374 141.959 86.7534 141.944 86.7534C141.784 86.7534 141.657 86.7508 141.561 86.7454L140.996 86.7374L140.455 86.7454C140.359 86.7508 140.227 86.7534 140.057 86.7534C140.041 86.7534 140.033 86.7374 140.033 86.7053C140.033 86.6732 140.041 86.6572 140.057 86.6572C140.259 86.6572 140.405 86.6438 140.495 86.6171C140.59 86.5905 140.654 86.5396 140.686 86.4648C140.723 86.3847 140.742 86.2645 140.742 86.1042V82.3933C140.742 82.233 140.723 82.1154 140.686 82.0407C140.654 81.9659 140.59 81.915 140.495 81.8884C140.405 81.8563 140.259 81.8403 140.057 81.8403C140.041 81.8403 140.033 81.8243 140.033 81.7922C140.033 81.7601 140.041 81.7441 140.057 81.7441L140.455 81.7521C140.678 81.7627 140.858 81.7681 140.996 81.7681C141.155 81.7681 141.347 81.7627 141.569 81.7521L141.944 81.7441C141.959 81.7441 141.967 81.7601 141.967 81.7922C141.967 81.8243 141.959 81.8403 141.944 81.8403C141.747 81.8403 141.601 81.8563 141.506 81.8884C141.41 81.9204 141.347 81.9765 141.315 82.0567C141.283 82.1314 141.267 82.249 141.267 82.4093V86.1042ZM145.964 82.8101C145.964 82.8207 145.948 82.8261 145.916 82.8261C145.884 82.8261 145.868 82.8207 145.868 82.8101C145.847 82.527 145.76 82.3078 145.606 82.1529C145.452 81.9926 145.247 81.9124 144.993 81.9124H144.507C144.332 81.9124 144.199 81.9258 144.109 81.9525C144.019 81.9791 143.955 82.0272 143.918 82.0968C143.886 82.1663 143.87 82.2677 143.87 82.4013V84.1566H144.674C144.956 84.1566 145.157 84.1139 145.279 84.0283C145.401 83.9376 145.462 83.7933 145.462 83.5955C145.462 83.5795 145.476 83.5715 145.502 83.5715C145.534 83.5715 145.55 83.5795 145.55 83.5955L145.542 84.2447C145.542 84.3996 145.545 84.5172 145.55 84.5974L145.558 84.9821C145.558 84.9981 145.542 85.0061 145.51 85.0061C145.484 85.0061 145.47 84.9981 145.47 84.9821C145.47 84.7471 145.407 84.5788 145.279 84.4772C145.152 84.3756 144.942 84.3249 144.65 84.3249H143.87V86.0721C143.87 86.243 143.891 86.3687 143.934 86.4488C143.982 86.5236 144.072 86.5771 144.205 86.6091C144.337 86.6412 144.547 86.6572 144.833 86.6572C144.844 86.6572 144.849 86.6732 144.849 86.7053C144.849 86.7374 144.844 86.7534 144.833 86.7534C144.616 86.7534 144.446 86.7508 144.324 86.7454L143.607 86.7374L143.066 86.7454C142.971 86.7508 142.835 86.7534 142.66 86.7534C142.65 86.7534 142.644 86.7374 142.644 86.7053C142.644 86.6732 142.65 86.6572 142.66 86.6572C142.862 86.6572 143.01 86.6438 143.106 86.6171C143.201 86.5905 143.265 86.5396 143.297 86.4648C143.334 86.3847 143.353 86.2645 143.353 86.1042V82.3933C143.353 82.233 143.337 82.1154 143.305 82.0407C143.273 81.9659 143.209 81.915 143.114 81.8884C143.024 81.8563 142.878 81.8403 142.676 81.8403C142.66 81.8403 142.652 81.8243 142.652 81.7922C142.652 81.7601 142.66 81.7441 142.676 81.7441H145.868C145.916 81.7441 145.94 81.7681 145.94 81.8162L145.964 82.8101ZM147.968 86.1042C147.968 86.2699 147.984 86.3901 148.016 86.4648C148.048 86.5396 148.109 86.5905 148.199 86.6171C148.294 86.6438 148.443 86.6572 148.645 86.6572C148.661 86.6572 148.669 86.6732 148.669 86.7053C148.669 86.7374 148.661 86.7534 148.645 86.7534C148.485 86.7534 148.358 86.7508 148.263 86.7454L147.697 86.7374L147.156 86.7454C147.061 86.7508 146.928 86.7534 146.758 86.7534C146.742 86.7534 146.734 86.7374 146.734 86.7053C146.734 86.6732 146.742 86.6572 146.758 86.6572C146.96 86.6572 147.106 86.6438 147.196 86.6171C147.291 86.5905 147.355 86.5396 147.387 86.4648C147.424 86.3847 147.443 86.2645 147.443 86.1042V82.3933C147.443 82.233 147.424 82.1154 147.387 82.0407C147.355 81.9659 147.291 81.915 147.196 81.8884C147.106 81.8563 146.96 81.8403 146.758 81.8403C146.742 81.8403 146.734 81.8243 146.734 81.7922C146.734 81.7601 146.742 81.7441 146.758 81.7441L147.156 81.7521C147.379 81.7627 147.559 81.7681 147.697 81.7681C147.857 81.7681 148.048 81.7627 148.271 81.7521L148.645 81.7441C148.661 81.7441 148.669 81.7601 148.669 81.7922C148.669 81.8243 148.661 81.8403 148.645 81.8403C148.448 81.8403 148.302 81.8563 148.207 81.8884C148.111 81.9204 148.048 81.9765 148.016 82.0567C147.984 82.1314 147.968 82.249 147.968 82.4093V86.1042ZM152.331 81.6559C152.585 81.6559 152.843 81.68 153.103 81.7281C153.363 81.7762 153.57 81.8457 153.724 81.9365C153.771 81.9631 153.801 81.9872 153.811 82.0086C153.822 82.0246 153.83 82.0621 153.835 82.1208L153.931 83.0265C153.931 83.0371 153.917 83.0451 153.891 83.0505C153.864 83.0559 153.848 83.0505 153.843 83.0345C153.726 82.6231 153.509 82.3212 153.19 82.1288C152.872 81.9311 152.482 81.8323 152.02 81.8323C151.617 81.8323 151.264 81.923 150.961 82.1048C150.659 82.2811 150.425 82.5322 150.261 82.8582C150.096 83.1842 150.014 83.5609 150.014 83.9883C150.014 84.4852 150.115 84.9446 150.317 85.3668C150.524 85.789 150.8 86.1228 151.144 86.3687C151.495 86.6145 151.871 86.7374 152.275 86.7374C152.657 86.7374 152.989 86.6332 153.27 86.4248C153.551 86.211 153.766 85.8852 153.915 85.447C153.915 85.4363 153.928 85.4309 153.954 85.4309C153.992 85.4309 154.01 85.4389 154.01 85.455L153.891 86.3607C153.88 86.4248 153.869 86.4675 153.859 86.4889C153.848 86.5103 153.819 86.529 153.771 86.545C153.294 86.748 152.79 86.8496 152.259 86.8496C151.622 86.8496 151.089 86.7213 150.659 86.4648C150.234 86.203 149.921 85.8718 149.72 85.471C149.518 85.0703 149.417 84.6481 149.417 84.2047C149.417 83.7132 149.552 83.2749 149.823 82.8902C150.094 82.5001 150.452 82.1983 150.898 81.9846C151.349 81.7655 151.826 81.6559 152.331 81.6559Z" fill="white"/>
<path d="M69.389 42.6542C69.5596 42.6542 69.6977 42.5153 69.6977 42.3438C69.6977 42.1723 69.5596 42.0332 69.389 42.0332C69.2187 42.0332 69.0806 42.1723 69.0806 42.3438C69.0806 42.5153 69.2187 42.6542 69.389 42.6542Z" fill="#26AABC"/>
</g>
<defs>
<linearGradient id="paint0_linear_183_456" x1="-5.72" y1="25.06" x2="183.97" y2="109.74" gradientUnits="userSpaceOnUse">
<stop stop-color="#22A0B7"/>
<stop offset="1" stop-color="#002B71"/>
</linearGradient>
<clipPath id="clip0_183_456">
<rect width="220" height="113" fill="white"/>
</clipPath>
</defs>
</svg>
